<svg viewBox="0 0 24 24" xmlns="http://www.w3.org/2000/svg">
  <path fill="#7ebae4" d="M7.352 1.592L5.988 1.594 5.32 2.75l1.557 2.713-3.137-.008-1.32 2.34H14.11l-1.353-2.332-3.192-.006z"/>
  <path fill="#5277c3" d="M13.527 1.592l-2.687.025 5.846 10.127 1.341-2.34-1.59-2.765 2.24-3.85-.683-1.182h-1.336l-1.57 2.705z"/>
  <path fill="#7ebae4" d="M20.414 5.787L14.568 15.912l2.696-.008 1.601-2.76 4.453.016.682-1.183-.666-1.157-3.13-.008 1.571-2.712z"/>
  <path fill="#5277c3" d="M9.432 8.086L6.736 8.094l-1.601 2.76-4.453-.016L0 12.02l.666 1.157 3.13.008-1.575 2.71 1.365 2.315z"/>
  <path fill="#7ebae4" d="M7.33 12.25l-1.348 2.346 1.59 2.765-2.24 3.85.684 1.182H7.35l.005-.006 1.567-2.698 1.558 2.72 2.688-.026z"/>
  <path fill="#5277c3" d="M9.881 15.914l1.354 2.332 3.192.006 2.215 3.865 1.363-.002.668-1.156-1.557-2.713 3.137.008 1.32-2.34z"/>
</svg>
